<?xml version="1.0" encoding="utf-8"?>
<!-- Generator: Adobe Illustrator 16.0.0, SVG Export Plug-In . SVG Version: 6.00 Build 0)  -->
<!DOCTYPE svg PUBLIC "-//W3C//DTD SVG 1.1//EN" "http://www.w3.org/Graphics/SVG/1.1/DTD/svg11.dtd">
<svg version="1.1" id="Layer_1" xmlns="http://www.w3.org/2000/svg" xmlns:xlink="http://www.w3.org/1999/xlink" x="0px" y="0px"
	 width="66.5px" height="55px" viewBox="29.5 51.5 66.5 55" enable-background="new 29.5 51.5 66.5 55" xml:space="preserve">
<g>
	<title>background</title>
	<rect id="canvas_background" x="-1" y="-1" fill="none" width="582" height="402"/>
</g>
<g>
	<title>Layer 1</title>
	<path id="svg_3" fill="#2A98F2" d="M69.718,75.96c-5.375,0-9.532,3.675-9.532,8.012c0,4.517,4.158,7.954,9.968,7.954
		c4.871,0,8.957-3.376,8.957-7.834C79.11,79.453,75.024,75.96,69.718,75.96L69.718,75.96z"/>
	<path id="svg_4" fill="#64C0FF" d="M76.723,89.288c3.445-2.895,3.494-7.71-0.258-10.863c-3.902-3.28-9.731-3.321-13.481-0.168"/>
	<path id="svg_5" fill="#64C0FF" d="M79.037,96.743c-3.368,2.772-6.811,3.795-11.395,3.795c-4.663,0-8.676-1.266-12.045-3.795
		c-4.445-3.313-6.738-7.651-6.738-12.711c0-4.636,2.151-8.796,6.166-12.048c3.582-2.952,7.954-4.458,12.831-4.458
		c4.658,0,8.242,1.325,10.825,4.098V58.391C74.074,55.931,68.614,54.5,62.75,54.5C46.317,54.5,33,65.691,33,79.5
		c0,13.808,13.317,25,29.75,25c6.061,0,11.698-1.527,16.399-4.144h-0.112V96.743z"/>
	<path id="svg_7" fill="#2A98F2" d="M33.063,81.054C34.019,94.138,46.939,104.5,62.75,104.5c3.28,0,6.436-0.451,9.387-1.276
		c-1.387,0.29-2.868,0.421-4.495,0.421c-4.663,0-8.676-1.266-12.045-3.795c-4.445-3.313-6.738-7.65-6.738-12.711
		c0-0.514,0.03-1.02,0.083-1.522c-0.051-0.521-0.083-1.049-0.083-1.586c0-4.636,2.151-8.796,6.166-12.048
		c3.582-2.952,7.954-4.458,12.831-4.458c4.658,0,8.242,1.325,10.825,4.098V61.499c-4.607-2.46-10.067-3.891-15.931-3.891
		C46.939,57.608,34.019,67.97,33.063,81.054z"/>
	<path id="svg_8" fill="#2A98F2" d="M79.037,99.851c-1.037,0.853-2.082,1.541-3.164,2.083c1.094-0.453,2.151-0.959,3.164-1.518
		v-0.06V99.851z"/>
	<path id="svg_9" fill="#2A98F2" d="M90.005,89.521C91.606,86.452,92.5,83.065,92.5,79.5c0-3.565-0.893-6.952-2.495-10.022"/>
	<path id="svg_10" fill="#64C0FF" d="M90.005,69.479V55.554l-11.323,1.97v0.867C83.652,61.046,87.621,64.903,90.005,69.479z"/>
	<path id="svg_11" fill="#64C0FF" d="M90.005,89.521c-2.309,4.432-6.103,8.191-10.855,10.835h10.855V89.521z"/>
	<path id="svg_13" stroke="#B2B2B2" stroke-width="3" stroke-linecap="round" stroke-linejoin="round" stroke-miterlimit="10" d="
		M69.718,75.96c-5.375,0-9.532,3.675-9.532,8.012c0,4.517,4.158,7.954,9.968,7.954c4.871,0,8.957-3.376,8.957-7.834
		C79.11,79.453,75.024,75.96,69.718,75.96L69.718,75.96z"/>
	
		<path id="svg_14" fill="#4C4C4C" stroke="#B2B2B2" stroke-width="3" stroke-linecap="round" stroke-linejoin="round" stroke-miterlimit="10" d="
		M76.862,89.288c3.445-2.895,3.494-7.71-0.258-10.863c-3.902-3.28-9.731-3.321-13.482-0.168"/>
	<path id="svg_15" stroke="#B2B2B2" stroke-width="3" stroke-linecap="round" stroke-linejoin="round" stroke-miterlimit="10" d="
		M79.037,96.743c-3.368,2.772-6.811,3.795-11.395,3.795c-4.663,0-8.676-1.266-12.045-3.795c-4.445-3.313-6.738-7.651-6.738-12.711
		c0-4.636,2.151-8.796,6.166-12.048c3.582-2.952,7.954-4.458,12.831-4.458c4.658,0,8.242,1.325,10.825,4.098V58.391
		C74.074,55.931,68.614,54.5,62.75,54.5C46.317,54.5,33,65.691,33,79.5c0,13.808,13.317,25,29.75,25
		c6.061,0,11.698-1.527,16.399-4.144h-0.112V96.743z"/>
	<path id="svg_16" stroke="#B2B2B2" stroke-width="3" stroke-linecap="round" stroke-linejoin="round" stroke-miterlimit="10" d="
		M90.005,89.521C91.606,86.452,92.5,83.065,92.5,79.5c0-3.565-0.893-6.952-2.495-10.022"/>
	<path id="svg_17" stroke="#B2B2B2" stroke-width="3" stroke-linecap="round" stroke-linejoin="round" stroke-miterlimit="10" d="
		M90.005,69.479V55.554l-11.323,1.97v0.867C83.652,61.046,87.621,64.903,90.005,69.479z"/>
	<path id="svg_18" stroke="#B2B2B2" stroke-width="3" stroke-linecap="round" stroke-linejoin="round" stroke-miterlimit="10" d="
		M90.005,89.521c-2.309,4.432-6.103,8.191-10.855,10.835h10.855V89.521z"/>
</g>
</svg>
